/* XPM */
static char *_ff6d1bc08d84a50c11414569a37bac5XxaXmgf2BIMzD4fC[] = {
/* columns rows colors chars-per-pixel */
"32 32 70 1 ",
"  c #769F5F",
". c #7B9F5C",
"X c #7CA05A",
"o c #4E9B7E",
"O c #5B9C74",
"+ c #539C7A",
"@ c #6E9E65",
"# c #659D6D",
"$ c #6A9E69",
"% c #739E62",
"& c #619D70",
"* c #829F56",
"= c #819F58",
"- c #8DA04E",
"; c #96A146",
": c #9AA243",
"> c #92A14A",
", c #85A054",
"< c #89A051",
"1 c #81A058",
"2 c #3C9A8D",
"3 c #2E9897",
"4 c #25979D",
"5 c #26989D",
"6 c #2B989A",
"7 c #339993",
"8 c #389A90",
"9 c #1E97A4",
"0 c #1D98A6",
"q c #2197A1",
"w c #2298A1",
"e c #459A85",
"r c #479C84",
"t c #499A82",
"y c #4C9B81",
"u c #4B9C81",
"i c #4D9C80",
"p c #489B84",
"a c #419A89",
"s c #439B88",
"d c #8EB68F",
"f c #86B595",
"g c #8AB693",
"h c #8CB590",
"j c #9AC1A7",
"k c #9DC1A5",
"l c #96C0AA",
"z c #92C0AD",
"x c #94C0AC",
"c c #98C0A9",
"v c #8DC0B1",
"b c #A5C7AE",
"n c #A3C7B0",
"m c #A6CDBF",
"M c #ABCDBB",
"N c #ACCDBA",
"B c #ABCEBC",
"V c #B0CEB7",
"C c #A5CDC0",
"Z c #B5D3C3",
"A c #B8D4C2",
"S c #BFDACD",
"D c #C1DACB",
"F c #C5DBC9",
"G c #D7E7DB",
"H c #D3E6DF",
"J c #D4E6DE",
"K c #DBE7D9",
"L c #E4EDE2",
"P c white",
/* pixels */
"009q45566377772222aaertto++++OOO",
"99qq5666677772222aaeetyo++++OOOO",
"9qPPPPPPPPPPPPPPPPPPPPPPPPPPPPO&",
"qwP566377772222aaeptto++++OOOP&#",
"q5P66377772222aaeptyo++++OOOOP##",
"55P6677772222aaeetyo++++OOOO&P##",
"56P377772222aaeetyo++++OOOO&#P#$",
"66P77772222aaeetyo++++OOOO&##P$$",
"63P7778222aaettyo++++OOOO&###P$@",
"67P772222aaeptyi++++OOOO&###$P@@",
"77P72222aaettto++++OOOO&###$$P%%",
"77P2222aaetvHHHJJJJJAO&###$$@P%%",
"77P222aaettCPPPPPPPPG&###$$@@P% ",
"72P2aaaeetumPPSMNNNNk###$$@%%P  ",
"22P2aaeetyozPPZlccjb###$$@@%%P X",
"22Paaeetyi+zPPPPPPPP##$$@@%%%P .",
"22Paeptyoo+xPPDNNVFF#$$@%%%  P.=",
"2aPeptiio++BPPnffgghd$@@%%   PX,",
"aaPetiio+++MPPPPPPPPL@@%%   XP=,",
"aePtyoo+++ONPPPPPPPPK@%%   ..P,*",
"eePyo++++OOOO&##$$$@@%%   ..=P*,",
"etPo++++OOOO&###$$@%%%   .X=,P,<",
"tyP++++OOOO&###$$@@%%%  ..==,P<-",
"yiP+++OOOO&###$$@@%%   ..=,,,P--",
"o+P++OOOO&###$$@%%%%  ..,,,<<P--",
"o+P+OOOO&###$$@@%%   ..==,<--P>>",
"++POOOO&###$$@%%%%  X.=,,,<--P>>",
"++POOO&###$$@@%%%  ..=,,,<---P>;",
"+OPOO&###$$@%%%% X..==*,<--->P;:",
"OOPPPPPPPPPPPPPPPPPPPPPPPPPPPP::",
"OOO&###$$@@%%  X.1=*,,<--->>;:::",
"OO&###$$@%%%%  .11*,*<-->>>;;:::"
};
