/* XPM */
static char *_50b7e10f0a64577f22e9c701bd0b489DlZOjYf7FaUHFbUJ[] = {
/* columns rows colors chars-per-pixel */
"32 32 11 1 ",
"  c #1997A8",
". c #53B1BD",
"X c #6FBEC8",
"o c #70BEC8",
"O c #7EC5CD",
"+ c #8CCBD3",
"@ c #9AD2D8",
"# c #A9D8DE",
"$ c #C5E5E9",
"% c #D4EBEF",
"& c white",
/* pixels */
"                                ",
"                                ",
"                                ",
"                                ",
"                                ",
"                                ",
"                                ",
"                                ",
"                                ",
"                                ",
"                                ",
"           X$$$$$$$$@           ",
"           +&&&&&&&&$           ",
"           +&&#+++++X           ",
"           o&&@ooooO            ",
"           o&&&&&&&&            ",
"           o&&#+++##            ",
"           +&&O......           ",
"           +&&&&&&&&%           ",
"           +&&&&&&&&$           ",
"                                ",
"                                ",
"                                ",
"                                ",
"                                ",
"                                ",
"                                ",
"                                ",
"                                ",
"                                ",
"                                ",
"                                "
};
