/* XPM */
static char *_5573e6f2bfd4fe2cd902daa04ec81a7Vp7fKkOQaE83CFMN[] = {
/* columns rows colors chars-per-pixel */
"32 32 18 1 ",
"  c #00707F",
". c #1997A8",
"X c #40939F",
"o c #53B1BD",
"O c #60A5AF",
"+ c #70AEB7",
"@ c #6FBEC8",
"# c #70BEC8",
"$ c #80B7BF",
"% c #8FC0C7",
"& c #9FC9CF",
"* c #8CCBD3",
"= c #9AD2D8",
"- c #A9D8DE",
"; c #BFDBDF",
": c #CFE4E7",
"> c #C5E5E9",
", c white",
/* pixels */
"....    ....    ....    ....    ",
"....    ....    ....    ....    ",
"....    ....    ....    ....    ",
"....    ....    ....    ....    ",
"    ....    ....    ....    ....",
"    ....    ....    ....    ....",
"    ....    ....    ....    ....",
"    ....    ....    ....    ....",
"....    ....    ....    ....    ",
"....    ....    ....    ....    ",
"....    ....    ....    ....    ",
"....    ...@;;;;>>>>%   ....    ",
"    ....   $,,,,,,,,>...    ....",
"    ....   $,,-*$$$$@...    ....",
"    ....   O,,=#OOO+....    ....",
"    ....   O,,,,,,,,....    ....",
"....    ...#,,&$**--    ....    ",
"....    ...*,,+XooooX   ....    ",
"....    ...*,,,,,,,,:   ....    ",
"....    ...*,,,,,,,,;   ....    ",
"    ....    ....    ....    ....",
"    ....    ....    ....    ....",
"    ....    ....    ....    ....",
"    ....    ....    ....    ....",
"....    ....    ....    ....    ",
"....    ....    ....    ....    ",
"....    ....    ....    ....    ",
"....    ....    ....    ....    ",
"    ....    ....    ....    ....",
"    ....    ....    ....    ....",
"    ....    ....    ....    ....",
"    ....    ....    ....    ...."
};
