/* XPM */
static char *_cf2a4a72d514669f3b58db5507f26c1yhIjbeqnBRS7uBnk[] = {
/* columns rows colors chars-per-pixel */
"32 32 10 1 ",
"  c #34ABBB",
". c #67C0CC",
"X c #80CBD5",
"o c #8CD0D9",
"O c #99D5DD",
"+ c #A6DAE1",
"@ c #B3DFE5",
"# c #CCEAEE",
"$ c #D9EFF3",
"% c white",
/* pixels */
"                                ",
"                                ",
"                                ",
"                                ",
"                                ",
"                                ",
"                                ",
"                                ",
"                                ",
"                                ",
"                                ",
"           X########+           ",
"           O%%%%%%%%#           ",
"           O%%@OOOOOX           ",
"           X%%+XXXXo            ",
"           X%%%%%%%%            ",
"           X%%@OOO@@            ",
"           O%%o......           ",
"           O%%%%%%%%$           ",
"           O%%%%%%%%#           ",
"                                ",
"                                ",
"                                ",
"                                ",
"                                ",
"                                ",
"                                ",
"                                ",
"                                ",
"                                ",
"                                ",
"                                "
};
