/* XPM */
static char *_94f3890bbe64daa972cb1f3819b7760Ndj7zJxvjLub8e8Q[] = {
/* columns rows colors chars-per-pixel */
"32 32 12 1 ",
"  c #34ABBB",
". c #41B0BF",
"X c #67C0CC",
"o c #80CBD5",
"O c #8CD0D9",
"+ c #99D5DD",
"@ c #B3DFE5",
"# c #CCEAEE",
"$ c #D9EFF2",
"% c #E5F5F7",
"& c #F2FAFB",
"* c white",
/* pixels */
"                                ",
"                                ",
"                                ",
"                                ",
"                                ",
"                                ",
"                                ",
"                                ",
"                                ",
"                                ",
"                                ",
"           o####. X##o          ",
"           +****O o**+          ",
"           +**&*$ o**+          ",
"           o**@**XX**+          ",
"           o**o#*#X**+          ",
"           o**+X**O**+          ",
"           +**+ %*$**+          ",
"           +**+ O****+          ",
"           +**+ .&***+          ",
"                                ",
"                                ",
"                                ",
"                                ",
"                                ",
"                                ",
"                                ",
"                                ",
"                                ",
"                                ",
"                                ",
"                                "
};
