/* XPM */
static char *_8b7e3020b484f0d9dfc3c3454ed4023MxRAnPD0Pr0dWA47[] = {
/* columns rows colors chars-per-pixel */
"32 32 19 1 ",
"  c #34ABBB",
". c #41B0BF",
"X c #58C9D9",
"o c #67C0CC",
"O c #80CBD5",
"+ c #8CD0D9",
"@ c #99D5DD",
"# c #82D7E2",
"$ c #96DDE7",
"% c #B3DFE5",
"& c #A1E1EA",
"* c #ABE4EC",
"= c #CCEAEE",
"- c #D9EFF2",
"; c #D5F1F5",
": c #E5F5F7",
"> c #E0F5F8",
", c #F2FAFB",
"< c white",
/* pixels */
"    XXXX    XXXX    XXXX    XXXX",
"    XXXX    XXXX    XXXX    XXXX",
"    XXXX    XXXX    XXXX    XXXX",
"    XXXX    XXXX    XXXX    XXXX",
"XXXX    XXXX    XXXX    XXXX    ",
"XXXX    XXXX    XXXX    XXXX    ",
"XXXX    XXXX    XXXX    XXXX    ",
"XXXX    XXXX    XXXX    XXXX    ",
"    XXXX    XXXX    XXXX    XXXX",
"    XXXX    XXXX    XXXX    XXXX",
"    XXXX    XXXX    XXXX    XXXX",
"    XXXX   O;;;;. o=;$XX    XXXX",
"XXXX    XXX*<<<<&X$<<@  XXXX    ",
"XXXX    XXX*<<,<>X$<<@  XXXX    ",
"XXXX    XXX$<<%<<##<<@  XXXX    ",
"XXXX    XXX$<<O=<;#<<@  XXXX    ",
"    XXXX   O<<*#<<+<<*XX    XXXX",
"    XXXX   @<<*X:<-<<*XX    XXXX",
"    XXXX   @<<*X+<<<<*XX    XXXX",
"    XXXX   @<<*X.,<<<*XX    XXXX",
"XXXX    XXXX    XXXX    XXXX    ",
"XXXX    XXXX    XXXX    XXXX    ",
"XXXX    XXXX    XXXX    XXXX    ",
"XXXX    XXXX    XXXX    XXXX    ",
"    XXXX    XXXX    XXXX    XXXX",
"    XXXX    XXXX    XXXX    XXXX",
"    XXXX    XXXX    XXXX    XXXX",
"    XXXX    XXXX    XXXX    XXXX",
"XXXX    XXXX    XXXX    XXXX    ",
"XXXX    XXXX    XXXX    XXXX    ",
"XXXX    XXXX    XXXX    XXXX    ",
"XXXX    XXXX    XXXX    XXXX    "
};
