/* XPM */
static char *_3621cbc088145f585e411415ebf8c68EXdazQvUgEAJdJ1p[] = {
/* columns rows colors chars-per-pixel */
"32 32 56 1 ",
"  c #8CE87F",
". c #7FE2C7",
"X c #7FE2CC",
"o c #7EE1D3",
"O c #7CE0DB",
"+ c #7BDFE5",
"@ c #7ADFE9",
"# c #7BE0E3",
"$ c #7AE0EB",
"% c #8BE884",
"& c #8AE78D",
"* c #8AE88B",
"= c #87E697",
"- c #88E794",
"; c #8AE892",
": c #87E69C",
"> c #88E79A",
", c #86E5A4",
"< c #84E5AC",
"1 c #83E4B4",
"2 c #8CE6B1",
"3 c #82E3B9",
"4 c #83E4B8",
"5 c #83E4B9",
"6 c #82E3BD",
"7 c #82E4BD",
"8 c #8AE5BF",
"9 c #A4ECBE",
"0 c #81E3C0",
"q c #82E4C0",
"w c #80E3C4",
"e c #81E3C8",
"r c #80E3CD",
"t c #A2EBC3",
"y c #A2EBC4",
"u c #A1EAC9",
"i c #B4EFC6",
"p c #B2EECB",
"a c #B1EDD0",
"s c #B0EDD6",
"d c #B9EFD1",
"f c #B9EFD7",
"g c #BAF0D4",
"h c #BFF1E1",
"j c #C2F2D3",
"k c #C1F2D6",
"l c #C0F1DB",
"z c #C0F1DC",
"x c #C0F1E0",
"c c #D1F5E4",
"v c #E0F9EB",
"b c #E0F8EC",
"n c #E8FAF1",
"m c #EFFBF6",
"M c #F7FDFA",
"N c white",
/* pixels */
"4111<<<<<,,,,:::>>==-;&&***%%%% ",
"44111<<<<<,,,,::>>>==--&&***%%%%",
"34NNNNNNNNNNNNNNNNNNNNNNNNNNNN%%",
"34N1411<<<<,,,,,::>>===--*&**N%%",
"63N44411<<<<<,,,,::>>>==--&&*N*%",
"66N341111<<<<<,,,,:::>===--&&N**",
"06N3444411<<<<<,,,,:::>>==--&N**",
"00N64314111<<<<,,,,,:::>===-;N**",
"w0N667444411<<<<,,,,,:::>===-N&&",
"w0N0667444111<<<<,,,,,::>>>==N-&",
"ewN00677344111<<<<,,,,,::>>>=N--",
"ewN00066331abvvv2<9vvi,,::>>>N=-",
".eNw0006733lNNNNd<pNNj,,,::>>N==",
"X.Nww000664zNNMNn<pNNj,,,,::>N>=",
"XXNe.ww0067sNNcNNttNNk,,,,,::N>>",
"oXNX.ww0006sNNabNvyNNk<<,,,,:N>>",
"ooNX.eww000sNNzuNNgNNk<<,,,,,N:>",
"ooNXX.eeww0xNNz3mNnNNk<<<<,,,N::",
"ooNoXXeeewwhNNz4fNNNNk<<<<,,,N,:",
"ooNooXX..wwhNNz68MNNNl1<<<<,,N,,",
"OoNoooXX..eww00663344411<<<<,N,,",
"OONooooXXeeeww00663344111<<<<N,,",
"OONooooXXXeeeww00633414411<<<N<,",
"OONOoooooXreewww00663314111<<N<,",
"OONOOooooXXr.ewww00663344411<N<<",
"##NOOOooooXXX.eeww0q773314411N<<",
"##NOOOOoooooXX.ewww0066741411N<<",
"#+N#OOOOoooooXX.eww0000643144N1<",
"##N##OOOOooooXXreeew000663444N11",
"@#NNNNNNNNNNNNNNNNNNNNNNNNNNNN11",
"$@#####OOOOoooooXXe.ww0006634444",
"@@@++##OOOOOoooooXXr.www00663414"
};
