/* XPM */
static char *e6ac365f86364fb4ace2a04784db10dd5vKlXMdbb8CmWIbV[] = {
/* columns rows colors chars-per-pixel */
"32 32 62 1 ",
"  c #8CE87F",
". c #7FE2C7",
"X c #7FE2CC",
"o c #7EE1D3",
"O c #7CE0DB",
"+ c #7BDFE5",
"@ c #7ADFE9",
"# c #7BE0E3",
"$ c #7AE0EB",
"% c #8BE884",
"& c #8AE78D",
"* c #8AE88B",
"= c #87E697",
"- c #88E794",
"; c #8AE892",
": c #87E69C",
"> c #88E79A",
", c #86E5A4",
"< c #84E5AC",
"1 c #83E4B4",
"2 c #82E3BB",
"3 c #94E8B5",
"4 c #9CEAB6",
"5 c #9AE9BB",
"6 c #9AE9BF",
"7 c #A4ECBC",
"8 c #81E3C0",
"9 c #82E4C0",
"0 c #80E3C4",
"q c #89E5C2",
"w c #88E4C7",
"e c #81E3C8",
"r c #80E3CD",
"t c #91E7C3",
"y c #91E7C4",
"u c #90E6C9",
"i c #A3EBC0",
"p c #A2EBC7",
"a c #AAECC7",
"s c #A1EACA",
"d c #A1EACC",
"f c #B1EDCE",
"g c #B1EED2",
"h c #B0EDD9",
"j c #B9F0D3",
"k c #B9F0D4",
"l c #C1F1D9",
"z c #C9F3DB",
"x c #CAF4D8",
"c c #CFF4E7",
"v c #D0F5E5",
"b c #D9F7E6",
"n c #D8F6E9",
"m c #DFF8EF",
"M c #E0F8EB",
"N c #E0F8ED",
"B c #E8FAEF",
"V c #E7F9F1",
"C c #EFFBF5",
"Z c #EFFCF5",
"A c #F7FDFB",
"S c white",
/* pixels */
"1111<<<<<,,,,:::>>==-;&&***%%%% ",
"11111<<<<<,,,,::>>>==--&&***%%%%",
"22SSSSSSSSSSSSSSSSSSSSSSSSSSSS%%",
"22S1111<<<<,,,,,::>>===--*&**S%%",
"22S21111<<<<<,,,,::>>>==--&&*S*%",
"22S221111<<<<<,,,,:::>===--&&S**",
"82S2221111<<<<<,,,,:::>>==--&S**",
"88S22211111<<<<,,,,,:::>===-;S**",
"08S222221111<<<<,,,,,:::>===-S&&",
"00S8222221111<<<<,,,,,::>>>==S-&",
"e0S88222221111<<<<,,,,,::>>>=S--",
"e0S8882222111jMZSCMx4,,,::>>>S=-",
".eS008822221VSSSSSSSS7,,,::>>S==",
"X.S00888222sSSCkfjbCC<,,,,::>S>=",
"XXSe.008822dSSZlffa5i<,,,,,::S>>",
"oXSX.0088822vSSSSSSSB3<<,,,,:S>>",
"ooSX.e000882qdsggkCSSz<<,,,,,S:>",
"ooSXX.ee0888cAnkggVSSz<<<<,,,S::",
"ooSoXXee008uSSSSSSSSS6<<<<,,,S,:",
"ooSooXX..00whmASSSSNp11<<<<,,S,,",
"OoSoooXX..e0088qyt211111<<<<,S,,",
"OOSooooXXree0088222211111<<<<S,,",
"OOSooooXXXee00088222211111<<<S<,",
"OOSOoooooXree00088222211111<<S<,",
"OOSOOooooXXr.e00088222221111<S<<",
"##SOOOooooXXX.ee0089222211111S<<",
"##SOOOOoooooXX.e0008822221111S<<",
"#+S#OOOOoooooXX.e008888222111S1<",
"##S##OOOOooooXXreee0888222221S11",
"@#SSSSSSSSSSSSSSSSSSSSSSSSSSSS11",
"$@#####OOOOoooooXXe.008882222211",
"@@@++##OOOOOoooooXXr.00088222211"
};
