/* XPM */
static char *cbfe17f70f1c472ee35e884f34d0a63aU9GmhlW6nzCDEqqw[] = {
/* columns rows colors chars-per-pixel */
"32 32 17 1 ",
"  c #34ABBB",
". c #41B0BF",
"X c #4DB5C3",
"o c #5ABBC8",
"O c #67C0CC",
"+ c #74C5D1",
"@ c #80CBD5",
"# c #8CD0D9",
"$ c #99D5DD",
"% c #A6DAE1",
"& c #B3DFE5",
"* c #BFE5EA",
"= c #CCEAEE",
"- c #D9EFF3",
"; c #E5F5F7",
": c #F2FAFB",
"> c white",
/* pixels */
"                                ",
"                                ",
"                                ",
"                                ",
"                                ",
"                                ",
"                                ",
"                                ",
"                                ",
"                                ",
"                                ",
"             #=;>;=%o           ",
"            ->>>>>>>>O          ",
"           O>>;#@#*;;           ",
"           O>>;$@@+oO           ",
"            &>>>>>>>-X          ",
"            .OO@@#;>>%          ",
"            &:*#@@->>%          ",
"           X>>>>>>>>>o          ",
"           .@=:>>>>=O           ",
"               .XX              ",
"                                ",
"                                ",
"                                ",
"                                ",
"                                ",
"                                ",
"                                ",
"                                ",
"                                ",
"                                ",
"                                "
};
