/* XPM */
static char *a57721fe8c76496bc5eefc9e603ddceaBvwky4jYLUDiepUI[] = {
/* columns rows colors chars-per-pixel */
"32 32 28 1 ",
"  c #34ABBB",
". c #41B0BF",
"X c #4DB5C3",
"o c #58C9D9",
"O c #67C0CC",
"+ c #63CCDB",
"@ c #6DD0DE",
"# c #77D3E1",
"$ c #78D3E1",
"% c #80CBD5",
"& c #8CD0D9",
"* c #99D5DD",
"= c #82D7E2",
"- c #8CDAE5",
"; c #97DDE7",
": c #A6DAE1",
"> c #B3DFE5",
", c #A1E0EA",
"< c #B6E7EE",
"1 c #CCEAEE",
"2 c #C0EBF1",
"3 c #CBEEF3",
"4 c #D9EFF3",
"5 c #D5F1F5",
"6 c #E6F5F7",
"7 c #EAF8FA",
"8 c #F5FBFD",
"9 c white",
/* pixels */
"    oooo    oooo    oooo    oooo",
"    oooo    oooo    oooo    oooo",
"    oooo    oooo    oooo    oooo",
"    oooo    oooo    oooo    oooo",
"oooo    oooo    oooo    oooo    ",
"oooo    oooo    oooo    oooo    ",
"oooo    oooo    oooo    oooo    ",
"oooo    oooo    oooo    oooo    ",
"    oooo    oooo    oooo    oooo",
"    oooo    oooo    oooo    oooo",
"    oooo    oooo    oooo    oooo",
"    oooo    o,57961:#ooo    oooo",
"oooo    oooo499999999O  oooo    ",
"oooo    ooo=996&;,376   oooo    ",
"oooo    ooo=996*;;-#O   oooo    ",
"oooo    oooo>99999994X  oooo    ",
"    oooo    +==;%&699<oo    oooo",
"    oooo    283,%%499<oo    oooo",
"    oooo   X999999999$oo    oooo",
"    oooo   .;5899991=ooo    oooo",
"oooo    oooo   .@@oo    oooo    ",
"oooo    oooo    oooo    oooo    ",
"oooo    oooo    oooo    oooo    ",
"oooo    oooo    oooo    oooo    ",
"    oooo    oooo    oooo    oooo",
"    oooo    oooo    oooo    oooo",
"    oooo    oooo    oooo    oooo",
"    oooo    oooo    oooo    oooo",
"oooo    oooo    oooo    oooo    ",
"oooo    oooo    oooo    oooo    ",
"oooo    oooo    oooo    oooo    ",
"oooo    oooo    oooo    oooo    "
};
