/* XPM */
static char *_132db93166649fd971b63238b066d28MTE5wYAo1DJxa8L7[] = {
/* columns rows colors chars-per-pixel */
"32 32 28 1 ",
"  c #00707F",
". c #107987",
"X c #20828F",
"o c #308B97",
"O c #1997A8",
"+ c #279EAD",
"@ c #509CA7",
"# c #44ABB8",
"$ c #53B1BD",
"% c #60A5AF",
"& c #70AFB7",
"* c #61B8C3",
"= c #70BEC9",
"- c #7EC4CE",
"; c #80B7BF",
": c #90C0C7",
"> c #9AD2D8",
", c #A0C9CF",
"< c #A9D8DE",
"1 c #B0D2D7",
"2 c #BFDBDF",
"3 c #B7DFE3",
"4 c #C5E5E9",
"5 c #D4EBEF",
"6 c #E3F2F4",
"7 c #EFF6F7",
"8 c #F1F9FA",
"9 c white",
/* pixels */
"OOOO    OOOO    OOOO    OOOO    ",
"OOOO    OOOO    OOOO    OOOO    ",
"OOOO    OOOO    OOOO    OOOO    ",
"OOOO    OOOO    OOOO    OOOO    ",
"    OOOO    OOOO    OOOO    OOOO",
"    OOOO    OOOO    OOOO    OOOO",
"    OOOO    OOOO    OOOO    OOOO",
"    OOOO    OOOO    OOOO    OOOO",
"OOOO    OOOO    OOOO    OOOO    ",
"OOOO    OOOO    OOOO    OOOO    ",
"OOOO    OOOO    OOOO    OOOO    ",
"OOOO    O*44%.224##42;  OOOO    ",
"    OOOO @99>$999%%99-OO    OOOO",
"    OOOO X99<-999:;99$OO    OOOO",
"    OOOO  795>9991,99+OO    OOOO",
"    OOOO  29649697298OOO    OOOO",
"OOOO    OO>9979&99692   OOOO    ",
"OOOO    OO=9999o9999;   OOOO    ",
"OOOO    OO#9997 6999@   OOOO    ",
"OOOO    OOO9992 3999o   OOOO    ",
"    OOOO    OOOO    OOOO    OOOO",
"    OOOO    OOOO    OOOO    OOOO",
"    OOOO    OOOO    OOOO    OOOO",
"    OOOO    OOOO    OOOO    OOOO",
"OOOO    OOOO    OOOO    OOOO    ",
"OOOO    OOOO    OOOO    OOOO    ",
"OOOO    OOOO    OOOO    OOOO    ",
"OOOO    OOOO    OOOO    OOOO    ",
"    OOOO    OOOO    OOOO    OOOO",
"    OOOO    OOOO    OOOO    OOOO",
"    OOOO    OOOO    OOOO    OOOO",
"    OOOO    OOOO    OOOO    OOOO"
};
