/* XPM */
static char *_4a303b221784a64d51ad6f7c8555fddKfpPXNbBQNxdC6gP[] = {
/* columns rows colors chars-per-pixel */
"32 32 68 1 ",
"  c #769F5F",
". c #7B9F5C",
"X c #7CA05A",
"o c #4E9B7E",
"O c #5B9C74",
"+ c #539C7A",
"@ c #6E9E65",
"# c #659D6D",
"$ c #6A9E69",
"% c #739E62",
"& c #619D70",
"* c #6FA475",
"= c #829F56",
"- c #819F58",
"; c #8DA04E",
": c #96A146",
"> c #9AA243",
", c #92A14A",
"< c #85A054",
"1 c #89A051",
"2 c #81A058",
"3 c #3C9A8D",
"4 c #2E9897",
"5 c #25979D",
"6 c #26989D",
"7 c #2B989A",
"8 c #339993",
"9 c #389A90",
"0 c #1E97A4",
"q c #1D98A6",
"w c #2197A1",
"e c #2298A1",
"r c #459A85",
"t c #4B9B82",
"y c #419A89",
"u c #58A187",
"i c #7DAF8C",
"p c #60A792",
"a c #76AE91",
"s c #7CB49E",
"d c #7EBAAB",
"f c #8AB083",
"g c #8BB693",
"h c #9ABC96",
"j c #80B9AB",
"k c #97C2AA",
"l c #93C0AC",
"z c #8FC1B0",
"x c #9DC7B5",
"c c #A6C8AE",
"v c #A4C7B1",
"b c #ADCEB9",
"n c #B4CEB4",
"m c #B1D3C7",
"M c #B4D3C4",
"N c #B8D4C3",
"B c #BDDACE",
"V c #C2D9CA",
"C c #CEE0D1",
"Z c #D7E7DB",
"A c #D3E6DF",
"S c #D4E6DE",
"D c #D9E7DA",
"F c #D1E6E1",
"G c #DEEDE6",
"H c #EAF2EE",
"J c #F4F9F7",
"K c white",
/* pixels */
"qq0w56677488883333yyrrtto++++OOO",
"00ww6777788883333yyrrtto++++OOOO",
"0wKKKKKKKKKKKKKKKKKKKKKKKKKKKKO&",
"weK677488883333yyrttto++++OOOK&#",
"w6K77488883333yyrttto++++OOOOK##",
"66K7788883333yyrrtto++++OOOO&K#$",
"67K488883333yyrrtto++++OOOO&#K$$",
"77K88883333yyrrtto++++OOOO&##K$$",
"74K8889333yyrrtto++++OOOO&##$K$@",
"78K883333yyrtttt++++OOOO&##$$K@@",
"88K83333yyrrtto++++OOOO&##$$$K%%",
"88K3333yydFFzuASSaaSSb&##$$$@K%%",
"88K333yyrjKKmsKKKkkKKc##$$$@@K% ",
"83K3yyyrrpKKBxKKKNbKKg#$$$@%%K  ",
"33K3yyrrttJKGMKKKCVKK*$$$@@%%K X",
"33KyyrrtttAKHSKHKJZKJ$$$@@%%%K .",
"33KyrtttooMKKJKvKKHKD$$@%%%  K.-",
"3yKrtttto+lKKKKiKKKKn$@@%%   KX<",
"yyKrttto++aKKKJ&HKKKh@@%%   XK-<",
"yrKttoo+++OKKKZ#CKKKf@%%   ..K<=",
"rrKto++++OOOO&##$$$@@%%   ..-K=<",
"rtKo++++OOOO&##$$$@%%%   .X-<K<1",
"ttK++++OOOO&##$$$@@%%%  ..--<K1;",
"ttK+++OOOO&##$$$@@%%   ..-<<<K;;",
"o+K++OOOO&##$$$@%%%%  ..<<<11K;;",
"o+K+OOOO&##$$$@@%%   ..--<1;;K,,",
"++KOOOO&##$$$@%%%%  X.-<<<1;;K,,",
"++KOOO&##$$$@@%%%  ..-<<<1;;;K,:",
"+OKOO&##$$$@%%%% X..--=<1;;;,K:>",
"OOKKKKKKKKKKKKKKKKKKKKKKKKKKKK>>",
"OOO&##$$$@@%%  X.2-=<<1;;;,,:>>>",
"OO&##$$$@%%%%  .22=<=1;;,,,::>>>"
};
