/* XPM */
static char *_c8a0c7fd853479be60298da0d4aba83k1Wwz2u5AWFoCqvk[] = {
/* columns rows colors chars-per-pixel */
"32 32 20 1 ",
"  c #1997A8",
". c #279DAD",
"X c #36A4B3",
"o c #44ABB8",
"O c #53B1BD",
"+ c #61B7C3",
"@ c #61B8C3",
"# c #6FBEC8",
"$ c #70BEC9",
"% c #7EC4CE",
"& c #8CCBD3",
"* c #9AD2D8",
"= c #A9D8DE",
"- c #B7DFE3",
"; c #B7DFE4",
": c #C5E5E9",
"> c #D4EBEF",
", c #E3F2F4",
"< c #F1F8FA",
"1 c white",
/* pixels */
"                                ",
"                                ",
"                                ",
"                                ",
"                                ",
"                                ",
"                                ",
"                                ",
"                                ",
"                                ",
"                                ",
"         @::#.:::oo::&          ",
"         +11*O111#$11%          ",
"         X11=%111*&11O          ",
"          <1>*111;=11.          ",
"          :1,:1,1<:1<           ",
"          *11<1%11,1:           ",
"          $1111o1111&           ",
"          o111< ,111+           ",
"           111: -111o           ",
"                                ",
"                                ",
"                                ",
"                                ",
"                                ",
"                                ",
"                                ",
"                                ",
"                                ",
"                                ",
"                                ",
"                                "
};
