/* XPM */
static char *_c163046df934aaefe9b5c8a79c546cf31KO3gF2N5I38yaX[] = {
/* columns rows colors chars-per-pixel */
"32 32 19 1 ",
"  c #34ABBB",
". c #41B0BF",
"X c #4DB5C3",
"o c #5ABBC7",
"O c #5ABBC8",
"+ c #67C0CC",
"@ c #73C5D1",
"# c #74C5D1",
"$ c #80CBD5",
"% c #8CD0D9",
"& c #99D5DD",
"* c #A6DAE1",
"= c #B3DFE5",
"- c #BFE5E9",
"; c #CCEAEE",
": c #D9EFF3",
"> c #E5F5F7",
", c #F2FAFB",
"< c white",
/* pixels */
"                                ",
"                                ",
"                                ",
"                                ",
"                                ",
"                                ",
"                                ",
"                                ",
"                                ",
"                                ",
"                                ",
"         #;;$.;;;Oo;;&          ",
"         #<<*+<<<$$<<%          ",
"         X<<=%<<<*&<<+          ",
"          ,<:*<<<-=<<.          ",
"          ;<>;<><,;<,           ",
"          *<<,<%<<><;           ",
"          $<<<<o<<<<&           ",
"          o<<<, ><<<@           ",
"           <<<; -<<<O           ",
"                                ",
"                                ",
"                                ",
"                                ",
"                                ",
"                                ",
"                                ",
"                                ",
"                                ",
"                                ",
"                                ",
"                                "
};
